<?xml version="1.0" encoding="UTF-8"?>
<svg version="1.1" xmlns="http://www.w3.org/2000/svg" width="36" height="39">
<path d="M0 0 C2.328125 1.53125 2.328125 1.53125 4 3 C5.32 2.34 6.64 1.68 8 1 C8.474375 2.11375 8.94875 3.2275 9.4375 4.375 C10.25306463 6.26710994 11.07856355 8.15712709 12 10 C12.35447437 17.20764553 12.35447437 17.20764553 10.9375 20.375 C9.64323782 23.99893409 10.3610337 26.95185993 11.00390625 30.6953125 C11 33 11 33 9.7421875 34.75390625 C6.95922771 36.74440888 4.3599375 36.82316118 1 37 C-1.375 36.375 -1.375 36.375 -3 35 C-3.9375 32.5625 -3.9375 32.5625 -4 30 C-2.8125 28.25 -2.8125 28.25 -1 27 C-0.319375 26.896875 0.36125 26.79375 1.0625 26.6875 C3.30646315 26.13836393 3.30646315 26.13836393 4.375 23.375 C5.16954784 19.08444168 4.89883791 16.94374028 3 13 C0.00257508 10.84362469 -3.24824967 9 -7 9 C-8.79044864 12.58089728 -8.40931601 16.78659877 -8.62109375 20.73828125 C-8.98529006 23.87337322 -9.75199116 26.12908639 -11 29 C-11.50010524 32.04230823 -11.50010524 32.04230823 -11 35 C-9.12498069 37.37719693 -9.12498069 37.37719693 -7 39 C-11.55737263 38.56179109 -14.57653445 38.14958831 -18 35 C-19.32 35.66 -20.64 36.32 -22 37 C-25.82545505 15.51597121 -25.82545505 15.51597121 -22 8.625 C-16.43357967 1.06835117 -9.30432533 -1.73372522 0 0 Z " fill="#FAAD3E" transform="translate(24,0)"/>
<path d="M0 0 C1.32 0 2.64 0 4 0 C3.67 0.66 3.34 1.32 3 2 C2.01 1.67 1.02 1.34 0 1 C0 0.67 0 0.34 0 0 Z " fill="#FBAE3F" transform="translate(23,15)"/>
</svg>
